<?xml version="1.0" standalone="no"?>
<!DOCTYPE svg PUBLIC "-//W3C//DTD SVG 20010904//EN"
 "http://www.w3.org/TR/2001/REC-SVG-20010904/DTD/svg10.dtd">
<svg version="1.0" xmlns="http://www.w3.org/2000/svg"
 width="260.000000pt" height="260.000000pt" viewBox="0 0 260.000000 260.000000"
 preserveAspectRatio="xMidYMid meet">
<metadata>
Created by potrace 1.11, written by Peter Selinger 2001-2013
</metadata>
<g transform="translate(0.000000,260.000000) scale(0.100000,-0.100000)"
fill="#000000" stroke="none">
<path d="M1080 2369 c-434 -93 -761 -423 -850 -859 -30 -143 -24 -340 13 -482
101 -383 398 -681 782 -785 91 -24 116 -27 275 -27 159 0 184 3 275 27 384
104 678 399 783 785 23 87 26 114 26 272 0 159 -3 184 -27 275 -104 384 -402
681 -785 782 -138 36 -356 42 -492 12z m-220 -434 c6 -8 18 -34 25 -57 l12
-43 574 -2 c571 -3 574 -3 592 -24 15 -19 17 -48 17 -274 0 -226 -2 -255 -17
-274 -16 -19 -60 -26 -513 -78 l-495 -58 0 -45 c0 -25 -4 -55 -8 -67 l-8 -23
445 0 446 0 16 -25 c21 -32 7 -72 -28 -80 -13 -3 -246 -4 -518 -3 l-494 3 -15
26 c-14 25 -13 31 17 91 l32 65 -83 384 -83 384 -114 5 c-111 5 -115 6 -129
31 -13 24 -13 29 2 53 l17 26 149 0 c118 0 151 -3 161 -15z m185 -1089 c39
-17 75 -68 75 -107 0 -33 -38 -90 -70 -106 -61 -31 -135 4 -159 73 -13 37 -12
44 5 80 12 24 32 46 54 56 42 22 51 22 95 4z m863 -12 c13 -9 31 -32 39 -52
13 -32 14 -42 2 -77 -30 -85 -129 -110 -191 -47 -100 100 31 254 150 176z"/>
<path d="M1270 1750 c0 -23 -6 -33 -25 -40 -46 -17 -75 -58 -75 -105 0 -56 19
-77 110 -123 76 -37 93 -59 70 -87 -18 -21 -79 -18 -118 5 -18 11 -34 20 -36
20 -2 0 -11 -12 -21 -26 -16 -24 -16 -27 1 -45 9 -11 34 -24 55 -31 32 -9 38
-16 41 -42 2 -25 8 -32 31 -34 25 -3 27 0 27 30 0 30 4 36 36 47 67 24 95 112
53 166 -12 15 -55 42 -96 61 -69 31 -74 36 -71 61 4 37 45 52 91 34 59 -24 63
-23 75 4 16 35 4 51 -49 67 -33 9 -39 15 -39 40 0 24 -4 28 -30 28 -27 0 -30
-3 -30 -30z"/>
</g>
</svg>
